<svg width="77" height="10" viewBox="0 0 77 10" fill="none" xmlns="http://www.w3.org/2000/svg">
<path d="M7.27049 0.922011L4.16209 6.21683V9.61499H3.1084V6.21683L-2.06015e-06 0.922011H1.25126L2.93717 3.8987L3.63524 5.13679L4.33332 3.8987L6.01923 0.922011H7.27049ZM10.4052 2.89769C11.0287 2.89769 11.5775 3.03379 12.0516 3.30599C12.5346 3.5782 12.9121 3.97333 13.1843 4.4914C13.4566 5.00069 13.5927 5.61095 13.5927 6.3222C13.5927 7.03344 13.4566 7.64809 13.1843 8.16616C12.9121 8.67545 12.5346 9.06619 12.0516 9.3384C11.5775 9.6106 11.0287 9.7467 10.4052 9.7467C9.79057 9.7467 9.24178 9.6106 8.75883 9.3384C8.27589 9.06619 7.89832 8.67545 7.62611 8.16616C7.35391 7.64809 7.2178 7.03344 7.2178 6.3222C7.2178 5.61095 7.35391 5.00069 7.62611 4.4914C7.89832 3.97333 8.27589 3.5782 8.75883 3.30599C9.24178 3.03379 9.79057 2.89769 10.4052 2.89769ZM10.4052 3.8065C9.95741 3.8065 9.57545 3.90748 9.25934 4.10944C8.94323 4.3114 8.69737 4.60116 8.52175 4.97873C8.35492 5.34753 8.2715 5.79535 8.2715 6.3222C8.2715 6.84026 8.35492 7.28808 8.52175 7.66566C8.69737 8.04323 8.94323 8.333 9.25934 8.53495C9.57545 8.73691 9.95741 8.83789 10.4052 8.83789C10.8531 8.83789 11.235 8.73691 11.5511 8.53495C11.8672 8.333 12.1087 8.04323 12.2755 7.66566C12.4512 7.28808 12.539 6.84026 12.539 6.3222C12.539 5.79535 12.4512 5.34753 12.2755 4.97873C12.1087 4.60116 11.8672 4.3114 11.5511 4.10944C11.235 3.90748 10.8531 3.8065 10.4052 3.8065ZM17.9603 9.7467C17.5389 9.7467 17.1393 9.66767 16.7618 9.50962C16.393 9.35157 16.09 9.09692 15.853 8.74569C15.6247 8.38568 15.5105 7.9203 15.5105 7.34955V3.0294H16.5642V7.07295C16.5642 7.74029 16.7091 8.20128 16.9988 8.45593C17.2886 8.70179 17.6969 8.82472 18.2238 8.82472C18.4696 8.82472 18.7111 8.78521 18.9482 8.70618C19.1853 8.61837 19.396 8.48666 19.5804 8.31104C19.7736 8.12665 19.9228 7.89396 20.0282 7.61297C20.1424 7.33199 20.1994 6.99832 20.1994 6.61196V3.0294H21.2531V9.61499H20.3312L20.2653 8.61398C20.037 9.00912 19.7253 9.29888 19.3301 9.48328C18.9438 9.65889 18.4872 9.7467 17.9603 9.7467ZM23.7054 9.61499V3.0294H24.5616L24.7065 4.10944C24.8909 3.70552 25.1587 3.40258 25.5099 3.20063C25.8699 2.99867 26.3046 2.89769 26.8138 2.89769C26.928 2.89769 27.0509 2.90647 27.1826 2.92403C27.3231 2.94159 27.4417 2.97672 27.5383 3.0294L27.3539 3.9909C27.2573 3.95577 27.1519 3.92943 27.0378 3.91187C26.9236 3.89431 26.7612 3.88553 26.5504 3.88553C26.2782 3.88553 26.0016 3.96455 25.7206 4.12261C25.4484 4.28066 25.2201 4.52213 25.0357 4.84702C24.8513 5.16313 24.7591 5.56705 24.7591 6.05877V9.61499H23.7054ZM40.2825 0.922011V9.61499H38.9786L35.3433 3.79333L34.4213 2.1601H34.4082L34.4608 3.47722V9.61499H33.4598V0.922011H34.7638L38.3859 6.71733L39.321 8.39007H39.3342L39.2815 7.05978V0.922011H40.2825ZM46.7037 5.3607C46.7037 4.86897 46.572 4.4914 46.3085 4.22798C46.0451 3.95577 45.6719 3.81967 45.189 3.81967C44.7324 3.81967 44.346 3.92065 44.0299 4.12261C43.7138 4.31579 43.4811 4.63189 43.3318 5.07093L42.4757 4.54409C42.6513 4.05236 42.9762 3.65723 43.4504 3.35868C43.9245 3.05135 44.5129 2.89769 45.2153 2.89769C45.6895 2.89769 46.1197 2.98111 46.5061 3.14794C46.8925 3.30599 47.1954 3.55186 47.4149 3.88553C47.6432 4.21042 47.7574 4.63189 47.7574 5.14996V8.33739C47.7574 8.65349 47.9242 8.81155 48.2579 8.81155C48.4247 8.81155 48.5871 8.7896 48.7452 8.74569L48.6925 9.57548C48.5169 9.66328 48.2886 9.70719 48.0076 9.70719C47.753 9.70719 47.5247 9.65889 47.3227 9.56231C47.1208 9.46572 46.9627 9.32083 46.8485 9.12766C46.7344 8.9257 46.6773 8.67545 46.6773 8.3769V8.24519L46.9407 8.2847C46.8354 8.62715 46.6554 8.90814 46.4007 9.12766C46.1461 9.3384 45.8607 9.49645 45.5446 9.60182C45.2285 9.69841 44.9168 9.7467 44.6094 9.7467C44.2231 9.7467 43.8631 9.68085 43.5294 9.54913C43.1957 9.41742 42.9279 9.21985 42.726 8.95643C42.5328 8.68423 42.4362 8.35056 42.4362 7.95542C42.4362 7.4637 42.5986 7.05978 42.9235 6.74367C43.2572 6.41878 43.7182 6.19926 44.3065 6.08511L46.9144 5.57144V6.44074L44.7938 6.87538C44.3636 6.96319 44.0431 7.08612 43.8323 7.24418C43.6216 7.40223 43.5162 7.62175 43.5162 7.90274C43.5162 8.17494 43.6216 8.39885 43.8323 8.57447C44.0519 8.7413 44.3592 8.82472 44.7543 8.82472C45.009 8.82472 45.2504 8.79399 45.4787 8.73252C45.7158 8.66227 45.9266 8.5613 46.111 8.42958C46.2954 8.28909 46.4402 8.11787 46.5456 7.91591C46.651 7.70517 46.7037 7.45931 46.7037 7.17832V5.3607ZM50.3179 9.61499V3.0294H51.2399L51.3058 4.05675C51.5428 3.65284 51.8502 3.35868 52.2277 3.17428C52.6141 2.98989 53.0092 2.89769 53.4131 2.89769C53.8785 2.89769 54.3176 3.00306 54.7303 3.2138C55.143 3.42454 55.4591 3.74942 55.6786 4.18846C55.8191 3.88992 56.0166 3.64845 56.2713 3.46405C56.5259 3.27087 56.8025 3.13038 57.1011 3.04257C57.4084 2.94598 57.6982 2.89769 57.9704 2.89769C58.3919 2.89769 58.7914 2.9855 59.169 3.16111C59.5553 3.33673 59.8714 3.60893 60.1173 3.97772C60.3631 4.34652 60.4861 4.82068 60.4861 5.40021V9.61499H59.4324V5.50558C59.4324 4.90849 59.2831 4.47823 58.9846 4.21481C58.686 3.95138 58.3172 3.81967 57.8782 3.81967C57.5357 3.81967 57.2152 3.90309 56.9167 4.06992C56.6181 4.23676 56.3767 4.48262 56.1923 4.80751C56.0166 5.1324 55.9288 5.53192 55.9288 6.00609V9.61499H54.8751V5.50558C54.8751 4.90849 54.7259 4.47823 54.4273 4.21481C54.1288 3.95138 53.76 3.81967 53.3209 3.81967C53.0312 3.81967 52.7326 3.8987 52.4253 4.05675C52.1268 4.20603 51.8765 4.4475 51.6745 4.78117C51.4726 5.11484 51.3716 5.55388 51.3716 6.09828V9.61499H50.3179ZM65.6245 9.7467C65.001 9.7467 64.4435 9.6106 63.9517 9.3384C63.4688 9.06619 63.0912 8.67545 62.819 8.16616C62.5468 7.64809 62.4107 7.03344 62.4107 6.3222C62.4107 5.61095 62.5468 5.00069 62.819 4.4914C63.0912 3.97333 63.4644 3.5782 63.9386 3.30599C64.4127 3.03379 64.9527 2.89769 65.5586 2.89769C66.1733 2.89769 66.6957 3.0294 67.126 3.29282C67.565 3.55625 67.8987 3.91626 68.127 4.37286C68.3553 4.82068 68.4694 5.32558 68.4694 5.88755C68.4694 6.03682 68.4651 6.17292 68.4563 6.29585C68.4475 6.41878 68.4343 6.52854 68.4168 6.62513H63.0956V5.68998H67.9558L67.4158 5.79535C67.4158 5.16313 67.2401 4.6758 66.8889 4.33335C66.5465 3.9909 66.0942 3.81967 65.5323 3.81967C65.102 3.81967 64.7288 3.92065 64.4127 4.12261C64.1054 4.31579 63.8639 4.60116 63.6883 4.97873C63.5215 5.34753 63.4381 5.79535 63.4381 6.3222C63.4381 6.84026 63.5259 7.28808 63.7015 7.66566C63.8771 8.04323 64.123 8.333 64.4391 8.53495C64.764 8.72813 65.1503 8.82472 65.5981 8.82472C66.0811 8.82472 66.4718 8.73252 66.7704 8.54812C67.0777 8.36373 67.3236 8.11348 67.508 7.79737L68.3377 8.2847C68.1709 8.58325 67.9558 8.84228 67.6923 9.0618C67.4377 9.28132 67.1348 9.45255 66.7835 9.57548C66.4411 9.68963 66.0547 9.7467 65.6245 9.7467Z" fill="#A3AAC2"/>
<path d="M73.4896 3.00306L74.596 4.03041L75.6892 5.46607L74.3984 6.40122L73.3711 4.91288L72.752 3.55625L73.1208 3.27965L73.4896 3.00306ZM72.752 3.00306L73.1208 3.27965L73.4896 3.55625L72.8574 4.91288L71.8301 6.40122L70.5525 5.46607L71.6457 4.03041L72.752 3.00306ZM70.2495 1.51471L71.9486 2.10742L73.2657 2.845L73.1208 3.27965L72.9759 3.7143L71.4744 3.54308L69.7622 3.0294L70.2495 1.51471ZM73.9111 2.875e-05L73.8716 1.80448L73.5818 3.27965H73.1208H72.6598L72.3701 1.80448L72.3174 2.875e-05H73.9111ZM76.0053 1.51471L76.4927 3.0294L74.7541 3.54308L73.2657 3.7143L73.1208 3.27965L72.9759 2.845L74.2931 2.10742L76.0053 1.51471Z" fill="#ED6565"/>
</svg>
